<svg xmlns="http://www.w3.org/2000/svg" xmlns:xlink="http://www.w3.org/1999/xlink" version="1.1" viewBox="0 0 512 512" enable-background="new 0 0 512 512">
	<g>
		<g>
			<path d="m95,88.9c51.1-49.6 134.4-49.7 185.5,0 11.3,11 24.9,3.7 28.9-0.5 7.9-8.1 7.6-21-0.4-28.9-66.8-64.7-175.5-64.7-242.3,0-8.1,7.9-8.3,20.8-0.4,28.9 7.6,8.2 20.6,8.4 28.7,0.5z"/>
			<path d="M112,103.7c-8.1,7.9-8.3,20.8-0.4,28.9c7.8,8.1,20.8,8.3,28.9,0.5c26-25.3,67.9-24.7,94.5,0c11.4,10.6,24.9,3.7,28.9-0.5    c7.9-8.1,7.6-21-0.4-28.9C221.7,63.3,153.8,63.3,112,103.7z"/>
			<path d="m480.6,227.4h-187.9c-14.4-44.3-56-76.4-105-76.4-49,0-90.7,32.1-105,76.4h-51.3c-11.3,0-20.4,9.1-20.4,20.4v188.3c0,11.3 9.1,20.4 20.4,20.4h45.6v24c0,11.3 9.1,20.4 20.4,20.4 11.3,0 20.4-9.1 20.4-20.4v-24h276.3v24c0,11.3 9.1,20.4 20.4,20.4 11.3,0 20.4-9.1 20.4-20.4v-24h45.6c11.3,0 20.4-9.1 20.4-20.4v-188.2c0.1-11.3-9-20.5-20.3-20.5zm-292.9-35.5c38.3,0 69.5,31.2 69.5,69.5 0,38.3-31.2,69.5-69.5,69.5-38.3,0-69.5-31.2-69.5-69.5 1.42109e-14-38.3 31.2-69.5 69.5-69.5zm272.5,223.8h-408.4v-147.4h25.7c3.6,57.7 51.6,103.5 110.1,103.5 58.5,0 106.6-45.8 110.1-103.5h162.3v147.4z"/>
		</g>
	</g>
</svg>
